<?xml version="1.0" encoding="UTF-8" standalone="no"?>
<!-- Created with Inkscape (http://www.inkscape.org/) -->

<svg
   version="1.1"
   id="svg1"
   width="543.71606"
   height="51.931202"
   viewBox="0 0 543.71607 51.931202"
   xmlns="http://www.w3.org/2000/svg"
   xmlns:svg="http://www.w3.org/2000/svg">
  <defs
     id="defs1" />
  <g
     id="g1"
     transform="translate(-228.02639,-214.34762)">
    <g
       id="group-R5"
       transform="translate(10.668528,10.119629)">
      <path
         id="path166"
         d="m 307.00758,217.31704 c -0.0493,0.17889 -0.0981,0.35792 -0.14743,0.53687 0.18686,-0.1231 0.51674,-0.19021 0.14743,-0.53687 z m -0.39873,0.76337 c -2.94246,0.37749 -5.02311,2.21181 -6.92595,4.35091 3.9038,1.25548 4.50554,-3.08983 6.92595,-4.35091 z m -8.63974,5.07233 c 0.49801,-0.2293 0.99824,-0.4558 1.49653,-0.68229 -0.61069,-0.0279 -1.12854,0.15666 -1.49653,0.68229 z m 29.37224,-2.90807 c -8.6431,5.42466 -15.84333,12.80944 -24.36534,18.41865 -5.41654,3.56516 -11.3157,5.598 -17.27303,7.61687 -1.72246,0.58439 -3.78579,0.33834 -5.65897,0.13695 -0.71444,-0.0755 -2.5342,-0.78294 -1.86899,-1.6218 2.2655,-2.85773 -1.65367,-2.23976 -1.7303,-4.08526 6.75901,-5.86925 15.35847,-9.84267 21.18689,-17.28058 -8.1255,5.18417 -16.3732,10.08592 -23.2969,17.12677 -3.48994,3.54839 -8.58855,5.07512 -13.56498,5.93357 -3.19383,0.54805 -6.42791,0.93114 -9.66005,1.13247 -1.57623,0.10066 -3.00146,-0.44741 -2.15169,-2.74589 0.24774,-0.67109 2.45982,-1.05697 0.67613,-1.93497 -1.09556,-0.53687 -2.20762,-2.5138 -3.89849,-0.9675 -0.10151,0.0923 -0.19651,0.19294 -0.29163,0.29081 -6.59068,6.91783 -15.14765,6.23276 -23.50243,6.44247 -1.79126,0.0447 -3.9091,-0.25445 -4.05116,-1.90143 -0.21502,-2.5082 -1.71044,-5.67629 1.51612,-7.56654 10.42566,-6.09573 19.23064,-14.52072 29.12643,-21.30991 5.55327,-3.81123 12.88773,-4.4348 19.27764,-1.84829 7.23295,2.92763 9.39778,2.648 12.33911,-4.76195 0.73205,-1.84271 1.98699,-2.40475 3.51175,-1.79238 3.78468,1.52673 7.55537,0.31319 11.3322,0.31038 2.46206,-0.002 5.6187,-1.4764 6.45646,2.72073 0.0732,0.36071 0.62384,0.96748 0.66521,0.94231 4.13113,-2.41592 8.5153,4.85423 12.54463,-0.33554 0.0799,-0.10339 0.29054,-0.24327 0.33219,-0.21251 3.07024,2.32923 5.84157,0.34673 8.7829,-0.43063 1.00049,-0.26284 1.06508,1.28346 0.95463,2.28171 1.87989,-0.2824 4.03493,-0.8081 4.92412,1.4876 0.72954,1.88744 -1.24655,3.28553 -2.31245,3.95383"
         style="fill:#e6e6e6;fill-opacity:1;fill-rule:nonzero;stroke:none;stroke-width:0.27962" />
      <path
         id="path167"
         d="m 596.12477,225.49036 c 0.65152,-0.53688 2.68436,0.77735 2.49421,-1.31702 -0.15372,-1.69729 -2.19222,-0.53406 -3.03668,-1.45123 -0.10339,-0.11472 -0.20699,-0.22649 -0.31038,-0.33834 -1.30024,-1.57146 -3.28274,-2.01048 -4.87098,-3.101 0.17616,-1.59663 -0.29082,-1.74202 -1.84831,-1.30582 -4.90735,1.38413 -9.8035,0.62355 -14.63535,-0.68786 0.0587,-0.44741 0.12016,-0.8948 0.18182,-1.3394 0.79692,-0.0866 1.52394,-0.26004 1.77,-1.20236 0.13988,-0.53408 -0.20133,-0.75497 -0.576,-0.72423 -0.86124,0.0698 -1.21635,0.8193 -1.62182,1.47082 -1.90141,0.12583 -2.52498,1.97133 -3.79166,2.94999 -5.03876,3.89513 -11.06739,6.75284 -13.37984,13.5029 -0.17344,0.50611 -1.15484,1.40929 -1.32262,0.22928 -0.38587,-2.74027 -1.02062,-1.55468 -2.41032,-0.64311 -4.90735,3.22681 -9.14921,7.64204 -14.88703,9.38967 -2.71232,0.82487 -0.69347,4.88778 -3.80005,5.13384 0.22089,0.32994 0.38028,0.8752 0.66549,0.9563 3.66304,1.0374 7.1667,2.94162 10.63959,3.89511 6.52915,1.79517 13.09184,-0.18182 18.68427,-4.58577 1.70568,-1.34499 3.53161,-2.65361 5.49734,-3.50925 8.22646,-3.58195 15.42669,-9.00658 23.27566,-13.25123 1.85389,-1.00106 1.97412,-3.00034 3.28274,-4.07129"
         style="fill:#e6e6e6;fill-opacity:1;fill-rule:nonzero;stroke:none;stroke-width:0.27962" />
      <path
         id="path168"
         d="m 748.4483,227.43094 c -0.39146,-0.22091 -0.78293,-0.44181 -1.1772,-0.6627 0.23488,0.39145 0.46697,0.78293 0.69905,1.17441 0.15938,-0.1705 0.31876,-0.34115 0.47815,-0.51171 z m -1.29743,-0.77175 c -0.27963,-0.5257 -0.55925,-1.04858 -0.83886,-1.57149 -1.22195,1.4065 0.11178,1.31144 0.83886,1.57149 z m -15.97476,15.61403 c -1.16321,-0.99265 -2.30406,-0.41944 -3.79445,-0.34115 1.53791,1.99649 2.63682,-0.1705 3.79445,0.34115 z M 730.821,223.20026 c -0.92835,0.17616 -1.5463,0.96469 -1.70849,2.03844 0.91436,0.10339 1.96294,0.57602 2.24536,-0.83887 0.0866,-0.42501 0.1705,-1.33658 -0.53687,-1.19957 z m -9.52389,7.3848 c -0.0923,-0.0698 -0.18182,-0.19021 -0.27682,-0.19566 -0.10633,-0.0105 -0.21811,0.0866 -0.32437,0.13694 0.0896,0.0698 0.17889,0.13695 0.26844,0.20699 0.11178,-0.0503 0.22089,-0.0979 0.33275,-0.14827 z m 39.77608,-4.23906 c -2.05241,1.19678 -1.49318,6.08456 -5.78535,3.89232 -1.04858,-0.53687 -0.31038,0.64593 -0.57324,0.90318 -1.20515,1.16323 -1.72524,3.29673 -3.98738,2.97797 l 0.0168,0.0147 c -2.32644,1.9126 -4.71441,3.7525 -6.96535,5.75739 -2.34881,2.08598 -6.05101,2.4271 -7.26455,6.00904 -0.2293,0.68229 -1.13247,0.76618 -1.76442,0.30481 -0.66271,-0.48376 -1.22474,-1.04858 -0.8836,-2.072 1.19957,-3.60711 -1.23592,-0.42503 -1.70289,-0.93952 0.12855,2.69833 -1.80635,2.03283 -3.0283,1.60501 -3.36944,-1.18 -6.64379,-2.6508 -10.24251,-4.12441 1.56307,-0.93114 2.84653,-0.87242 4.00697,-0.6627 1.44564,0.25725 2.48304,1.07374 1.78678,-1.59663 -0.41385,-1.58266 2.23416,-0.86682 3.06185,-1.93778 2.70953,2.46626 3.95662,-0.56203 5.6735,-1.63578 1.6274,-1.01502 3.20446,-1.93498 5.02758,-2.66198 1.64977,-0.65713 2.28452,-3.9846 3.36105,-6.1293 -4.12441,-2.64521 -4.19431,-2.63403 -9.80631,2.17544 -0.41104,0.34953 -0.86962,1.25272 -1.04857,1.1828 -3.90911,-1.49597 -4.41521,2.44669 -6.26631,4.14958 -0.24606,0.2237 -2.5781,0.79413 -0.26844,2.00767 0.77176,0.40826 -0.43061,1.23594 -1.25829,1.38413 -0.18728,0.45019 -0.37189,0.89758 -0.55925,1.34499 -0.20972,-0.12311 -0.50611,-0.19567 -0.61795,-0.38309 -0.46976,-0.79132 -0.0105,-1.19679 0.66828,-1.46522 -1.44003,-0.80531 -2.24255,0.35513 -3.20164,1.07655 -2.00489,1.51275 -3.60433,3.15413 -6.45086,3.91468 -2.09437,0.56485 -4.7983,3.57356 -6.89545,5.82452 -3.10101,3.32469 -7.29253,4.75636 -11.17087,6.31104 -2.19782,0.88081 -5.71545,1.26947 -8.08385,-1.55189 -1.23313,-1.46523 -3.17369,-1.38413 -4.97165,-1.01503 -1.40371,0.28521 -2.20621,-0.9507 -2.15588,-1.74762 0.12017,-1.90422 1.4037,-0.53688 2.09995,-0.36631 1.52113,0.3747 3.21845,-0.60958 4.58579,0.97587 -0.34953,-1.64975 -2.92763,-1.21076 -2.30408,-3.13175 0.24887,-0.76337 1.42885,-0.52849 2.23976,-0.3635 0.41943,0.46695 0.83608,0.96469 1.4009,0.13988 -0.46416,-0.0531 -0.92834,-0.10633 -1.39251,-0.15939 -0.006,-0.26562 -0.0105,-0.53406 -0.0189,-0.7997 0.81369,-0.5956 1.70847,-1.51556 1.87905,0.53966 5.60639,-0.89478 9.50432,-5.4498 14.69967,-7.20863 3.19047,-1.07934 2.65081,-4.93811 4.89896,-6.71929 1.31141,-1.04019 1.99089,-3.64066 3.94265,-0.0671 1.38413,2.53337 2.18665,-1.0262 3.38062,-1.57427 -0.69625,-0.18182 -1.89862,-0.0252 -0.96469,-1.37014 0.42782,-0.61516 0.89758,-1.65816 1.80077,-0.90876 0.58999,0.49212 -0.10339,1.24431 -0.37191,1.8455 4.44597,-1.7756 6.09014,-5.67631 7.16389,-9.97968 0.22649,-0.90318 0.91717,-1.57706 2.07759,-1.4764 0.97029,0.0839 2.07478,1.62461 2.77384,-0.41104 0.0308,-0.0896 0.89759,-0.0923 1.04858,0.11178 1.06536,1.44844 -1.20238,1.96854 -0.85285,3.54281 3.08142,-0.21253 4.05731,-3.65186 6.5739,-4.58858 -0.82769,-0.0896 -1.99371,-0.43342 -1.39251,-1.3254 0.85283,-1.27508 2.25933,-2.17547 3.51202,-3.12338 0.0782,-0.0587 1.16323,0.80251 1.2583,1.331 0.27124,1.49039 -1.12687,1.08492 -1.85389,1.48758 -0.43621,0.24327 -0.71303,0.78853 -1.05976,1.19678 2.46066,0.45859 0.82769,1.34497 0.14534,1.96854 -1.00664,0.91436 -2.38238,2.00207 -1.07654,3.2352 1.88465,1.7756 1.02062,-1.78678 1.63299,-1.29743 2.84094,2.2845 3.29674,-0.72423 4.56621,-1.94616 0.15099,-0.1705 0.30478,-0.34114 0.45858,-0.51171 0.48095,0.31877 0.96189,0.63754 1.44285,0.9535 -0.0363,-1.19958 -0.0755,-2.40754 -0.13422,-4.21109 3.26876,2.53336 3.47568,6.29147 5.22891,9.0737 0.45019,-0.62354 1.06256,-1.18839 1.28906,-1.88744 0.25165,-0.77175 0.25444,-1.75322 1.17998,-1.84271 1.2583,-0.12016 0.58721,1.64138 1.53793,1.94897 l 0.0728,0.0839 c -0.8696,0.83326 -1.83711,1.62458 -1.20515,3.3219 0.73539,-3.6211 2.93881,-0.33276 4.30337,-1.17722 0.26005,-0.13988 0.52009,-0.27682 0.78014,-0.41662 -0.11744,0.27401 -0.23488,0.54805 -0.34953,0.82208 v 0 c 1.49877,3.25758 4.11603,0.97587 6.35298,1.37293"
         style="fill:#e6e6e6;fill-opacity:1;fill-rule:nonzero;stroke:none;stroke-width:0.27962" />
      <path
         id="path169"
         d="m 329.16336,224.78292 c -0.36044,0.64593 -0.57462,0.9591 -0.72004,1.30303 -0.25669,0.61237 -1.32708,1.66934 0.30927,1.5519 0.77427,-0.056 1.38943,-1.28904 0.41077,-2.85493 z m 23.13416,-10.00484 c -0.14848,1.4121 0.69458,2.23976 2.21403,3.06466 0.71864,-1.8567 -0.25893,-2.77945 -1.29967,-3.6155 -0.11157,-0.0896 -0.89144,0.32434 -0.91436,0.55084 z m -1.88968,9.87901 c -9.69166,6.01465 -16.80773,15.50779 -26.71471,21.04148 -4.90875,2.74029 -10.69439,4.21669 -16.58824,3.39739 -0.98539,-0.13694 -2.26856,-0.39146 -2.52414,-1.60781 -0.24914,-1.1744 1.43725,-0.95911 1.89053,-1.80636 -1.03321,-1.01782 -3.0736,-0.68227 -2.99168,-2.50539 0.0568,-1.30305 1.21356,-1.68333 2.38992,-1.71128 -0.50584,-2.70674 1.93442,-1.95176 2.97098,-2.2957 3.24613,-1.07374 4.81256,-5.42184 8.90845,-4.70881 0.20447,0.0363 0.61711,-0.20971 0.67499,-0.40546 2.05689,-6.85351 8.73508,-8.93389 13.16512,-13.32673 0.86291,-0.85285 1.71604,-1.43445 2.14302,-2.79062 1.07486,-3.40857 4.41074,-3.8336 7.41779,-1.14924 1.07486,-0.90876 0.0447,-1.54072 -0.28634,-2.26493 -0.79831,-0.095 -1.86758,-0.36631 -1.39474,-1.31142 0.67499,-1.35057 1.64388,-0.72423 2.37566,0.20972 0.0168,-0.0189 0.0327,-0.0363 0.0493,-0.056 l -0.0361,0.0698 c 0.74269,1.73645 3.7967,0.0252 4.04473,2.86891 0.0327,0.38309 1.36539,-0.89477 1.91261,-1.5463 2.69358,-3.21005 5.15537,-3.63506 8.08385,-1.04019 0.65206,0.57882 0.93617,1.1073 1.9277,0.83327 1.57845,-0.43621 1.73028,1.12688 2.0306,2.02166 0.34198,1.01502 -0.71442,1.21356 -1.44507,1.58545 -3.11302,1.58826 -5.09974,4.69484 -8.00416,6.4984"
         style="fill:#e6e6e6;fill-opacity:1;fill-rule:nonzero;stroke:none;stroke-width:0.27962" />
      <path
         id="path170"
         d="m 618.00792,228.07965 -0.35233,-0.11744 0.0147,0.27123 z m 8.56198,-7.19184 c 1.27507,-1.70849 0.25725,-2.76825 0.095,-3.83361 -0.0252,1.06815 -0.0531,2.13351 -0.095,3.83361 z m 3.81403,-3.34987 c 0.24606,0.0698 0.49493,0.20698 0.7382,0.1986 0.45578,-0.0105 0.80531,-0.24887 0.63754,-0.76897 -0.056,-0.16777 -0.41943,-0.22928 -0.72981,-0.38307 -0.20972,0.31038 -0.42782,0.63194 -0.64593,0.9535 z m 2.88569,-1.95175 c 0.0671,0.16211 0.47537,0.32995 0.63754,0.26005 0.15938,-0.0728 0.32156,-0.48935 0.25166,-0.65431 -0.0671,-0.16505 -0.42222,-0.20405 -0.65153,-0.29641 -0.0923,0.23488 -0.30757,0.52569 -0.23767,0.69067 z m -8.74374,16.35223 c -7.11916,5.49735 -13.50569,12.06285 -21.9223,15.69234 -0.83326,0.3579 -1.34497,0.47255 -2.17544,0.20405 -4.09644,-1.331 -7.96641,-3.42256 -12.30612,-3.94265 -0.59838,-0.0698 -1.09052,-0.33276 -1.01224,-0.99825 0.0363,-0.31317 0.40826,-0.78853 0.68787,-0.83607 3.68542,-0.63754 5.08911,-4.37048 7.90209,-6.28867 2.3628,-1.61342 5.58125,-0.50891 7.22821,-3.18489 -0.85285,-0.27961 -2.39636,0.66271 -2.40475,-1.04297 -0.006,-1.24712 1.35896,-0.92556 2.19224,-1.13247 0.10906,-0.8137 0.27123,-1.60504 1.27508,-1.67215 0.18182,-0.0105 0.52567,0.22931 0.54526,0.38588 0.12016,0.95351 -0.67109,1.29745 -1.24152,1.77839 0.0335,0.39986 0.0644,0.80252 0.0979,1.20517 1.54071,-1.6889 3.47289,-3.05346 3.8392,-5.65393 0.0923,-0.65153 0.96469,-1.43725 1.87626,-0.75498 0.12856,0.0979 -0.27682,0.94232 -0.43621,1.44284 -0.0812,0.0279 -0.15938,0.0587 -0.24048,0.0866 0.0839,-0.0279 0.16505,-0.056 0.24887,-0.0839 1.60502,-0.8137 3.41696,-1.15203 2.82137,-4.02373 -0.15099,-0.73541 1.26947,-4.96328 4.8682,-2.73751 1.37573,0.85286 3.57636,-1.12965 2.8829,-2.09155 -3.46172,-4.80109 1.52952,-4.49631 3.11778,-5.0164 2.58648,-0.84166 0.70743,-0.56204 0.008,-1.07096 -0.68787,-0.50051 -0.26565,-1.21354 0.21529,-1.77279 0.64314,-0.75219 1.33379,-0.8137 2.16148,-0.31317 2.3628,1.43165 4.43198,1.55469 6.30265,-1.02622 0.80531,-1.11009 2.25096,-0.71303 3.39181,-0.10339 1.13526,0.61237 0.47535,1.50435 0.48654,2.4327 0.0363,2.76265 1.35896,5.07791 3.40579,6.92062 1.57985,1.42328 1.73084,1.9154 -0.54247,3.34428 -4.70043,2.95279 -8.84162,6.83392 -13.27361,10.25369"
         style="fill:#e6e6e6;fill-opacity:1;fill-rule:nonzero;stroke:none;stroke-width:0.27962" />
      <path
         id="path171"
         d="m 433.61185,223.03249 c -1.61901,0.90597 -2.74866,1.61621 -2.46066,3.29115 0.0447,0.24046 0.69904,0.62634 0.90876,0.53966 1.43445,-0.60398 1.7057,-1.83151 1.5519,-3.83081 z m -7.3065,10.56967 c -0.095,-0.0308 -0.19294,-0.0782 -0.29079,-0.0728 -0.0336,0.002 -0.0615,0.13422 -0.0923,0.20972 0.095,0.0279 0.19567,0.0755 0.29079,0.0698 0.0336,-0.002 0.0614,-0.13422 0.0923,-0.20699 z m 11.99016,-2.47743 c -0.0866,-0.42782 -0.17343,-0.85843 -0.26005,-1.28906 -0.18182,0.16777 -0.4474,0.29641 -0.53408,0.50612 -0.38588,0.93672 0.54805,0.49212 0.79413,0.78294 z m 9.42601,-14.12367 c 0.67669,-0.21529 1.20796,-0.90876 1.71688,-1.32819 -0.002,-0.79971 -0.30199,-1.26108 -0.86403,-1.28067 -0.93393,-0.0308 -1.39251,0.67109 -1.5463,1.50437 -0.0923,0.50051 0.0252,1.31981 0.69345,1.10449 z m -16.68498,21.26518 c -1.97133,2.11114 -5.12825,2.96957 -6.15166,6.07618 -0.20699,0.61516 -0.65991,1.04298 -1.17441,0.92833 -3.6882,-0.81089 -4.66967,2.38797 -5.90559,4.56901 -0.93114,1.64696 -2.23417,-0.056 -3.48407,1.28067 -1.43727,1.53231 -4.74518,0.95909 -6.83955,2.81019 -0.22649,0.1986 -4.75914,0.90037 -4.10761,-3.07305 0.23488,-1.42885 -1.65816,-1.16602 -1.95737,-2.39076 1.99092,-0.57042 3.91192,-1.26387 4.94651,-3.26317 -1.07654,-1.3282 -2.76265,-0.66828 -4.05731,-1.15204 -0.51729,-0.67947 0.002,-1.40369 0.28802,-1.40369 4.64449,-0.0105 6.92341,-4.63052 10.94716,-5.8217 1.02621,-0.30481 2.45227,-0.51452 2.90526,-1.26669 1.43724,-2.39636 2.98914,-3.63787 5.69588,-2.0636 0.0252,0.0168 0.41943,-0.62636 0.64032,-0.9619 v -0.002 c -2.08317,0.22649 -2.4271,-1.21635 -0.98985,-1.95176 2.46346,-1.2639 3.06466,-5.31001 6.82555,-4.60257 0.60119,0.11178 1.6274,-1.01222 0.51171,-2.04402 -0.28243,0.27683 -0.56483,0.55365 -0.84725,0.83327 0,0.002 -0.002,0.006 -0.002,0.006 l -0.10339,0.12583 0.10633,-0.13149 c 0,0.002 -0.002,0.002 -0.002,0.006 l 0.008,-0.0147 c 0.26285,-0.29639 0.5229,-0.59281 0.78295,-0.8892 l 0.0614,0.0587 c 3.28274,-4.66967 7.88531,-7.72592 12.49624,-10.68711 0.35514,-1.35896 -3.48407,-1.40929 -0.91993,-3.36663 0.89758,-1.59105 1.99649,-1.29745 3.25757,-0.37749 -0.72702,1.28625 -1.92938,0.52848 -2.82697,0.83326 1.52952,0.38028 3.05907,0.75777 4.59137,1.13807 0.88362,-4.24465 2.65641,-0.43342 4.02097,-0.54247 3.87273,-0.30478 2.07199,2.17265 1.97971,3.8392 0.70744,-1.58545 2.22578,-2.77945 3.42814,-1.65816 1.05139,0.98147 2.23977,2.69835 0.77736,4.92692 -2.67598,4.07968 -7.13034,5.75741 -10.4718,8.90314 -2.03565,1.9154 -3.94547,4.28378 -7.13873,4.25583 -1.43445,3.42816 -4.97166,4.59137 -7.28971,7.0744"
         style="fill:#e6e6e6;fill-opacity:1;fill-rule:nonzero;stroke:none;stroke-width:0.27962" />
      <path
         id="path172"
         d="m 649.20802,226.20899 c 1.82872,0.49214 2.49702,-1.17441 3.46729,-2.47744 -1.35057,0.0644 -2.9416,-0.68507 -3.83079,1.09891 -0.31319,0.63194 -0.10066,1.2527 0.3635,1.37853 z m -1.61341,8.60952 c 0.0189,-0.0279 -0.11471,-0.18727 -0.17616,-0.28521 -0.1705,0.15938 -0.36631,0.2992 -0.49774,0.48654 -0.0419,0.0644 0.0728,0.24327 0.11472,0.37191 0.19021,-0.18728 0.38866,-0.36631 0.55925,-0.57324 z m -6.03142,-6.22994 c 0.74378,0.85283 -0.88362,2.56971 0.97866,2.92482 0.2936,0.056 1.00663,-0.64592 1.05977,-1.06254 0.20699,-1.5519 -1.05138,-1.58545 -2.03843,-1.86228 z m 13.3491,-3.89792 c -0.008,0.77735 0.6627,0.65991 1.12967,0.61516 0.30199,-0.0279 0.84166,-0.32435 0.83048,-0.44739 -0.0755,-0.62915 -0.54807,-0.81091 -1.33939,-0.69905 -0.12311,0.0979 -0.61797,0.31317 -0.62076,0.53128 z m 2.65359,3.81961 c -0.576,0.7494 -0.12855,1.33939 0.26844,1.92939 -0.0812,-0.66549 0.97868,-1.15763 0.35513,-1.87625 -0.10632,-0.12016 -0.54807,-0.15099 -0.62357,-0.0531 z m 3.37223,-5.9727 c 0.87802,-0.46138 1.54632,-0.81089 2.69275,-1.41208 -1.6134,-0.2992 -2.30687,0 -2.69275,1.41208 z m -11.97057,14.6046 c -5.29323,5.022 -11.67697,7.84897 -17.76712,11.29949 -3.36942,1.90982 -13.00517,-0.439 -15.54413,-3.37781 -1.18838,-1.37574 -1.45962,-2.17547 0.84725,-2.63963 1.16883,-0.23488 2.31807,-1.03459 3.63228,-1.02062 0.12855,-1.38413 -2.17545,-1.16042 -1.43446,-2.55854 0.20406,-0.38587 1.35338,-0.65989 1.80637,-0.43339 3.90071,1.96013 5.95592,-1.33101 8.50326,-3.07863 0.99267,-0.67948 1.66933,-1.82314 2.56134,-2.68157 0.64311,-0.61516 1.24431,-1.90422 2.2845,-1.15484 1.21075,0.87241 -0.0447,1.67772 -0.50611,2.40753 -0.49214,0.77736 -0.62357,1.51277 -0.0419,2.25935 0.59838,0.76337 1.35057,0.24046 1.80355,-0.0614 1.4708,-0.97308 -0.42224,-0.90876 -0.55086,-1.46801 -0.23488,-1.03459 0.74099,-0.96189 1.02341,-1.49318 1.29185,-2.43549 3.54001,-3.60711 5.91399,-4.59976 0.86403,-2.22298 1.58824,-4.59418 4.59697,-4.55502 2.83535,0.0363 2.8018,-3.52602 5.10307,-4.25583 0.79692,-0.25447 1.88745,-1.67772 2.2146,-0.24887 1.26949,5.56445 2.98078,1.46241 3.72455,0.84725 -2.03005,1.22474 -3.50084,-2.48863 -6.03142,-2.77942 -0.58721,-0.0644 -0.20699,-1.73926 1.24433,-2.17826 1.75322,-0.52569 3.73294,-0.25166 5.27923,-1.58824 1.28067,-1.1129 2.92204,-3.14294 4.33414,-1.71688 0.88359,0.8892 0.31037,3.58474 -1.06257,5.10868 -0.24887,0.27682 -0.54805,0.50892 -1.05418,0.97587 1.87067,0.35232 3.61271,-1.77558 4.99124,0.0728 0.98147,1.31423 1.50995,2.92203 1.14924,4.76195 1.02901,-3.1765 2.62285,-5.48897 6.08175,-5.73503 0.31038,-0.84446 0.47258,-2.15028 1.50157,-1.98811 0.77735,0.12311 0.34674,1.36175 0.39426,2.11394 0.20972,0.0979 0.42504,0.19566 0.63754,0.2936 -0.12017,0.12856 -0.23767,0.25726 -0.3579,0.38867 -0.10633,-0.21251 -0.21532,-0.42501 -0.32437,-0.63473 v 0.002 c -0.46976,0.0866 -0.93674,0.17343 -1.4065,0.26284 1.39251,1.22755 1.83992,2.22019 0.28803,3.97902 -1.07935,1.22193 -2.35442,2.11672 -3.60154,2.43549 -4.41242,1.12686 -6.99611,5.39668 -11.31626,6.54873 0,-0.002 0,-0.006 -0.002,-0.008 -2.67597,2.63682 -6.35858,4.07406 -8.91432,6.49838"
         style="fill:#e6e6e6;fill-opacity:1;fill-rule:nonzero;stroke:none;stroke-width:0.27962" />
      <path
         id="path173"
         d="m 385.06238,232.09502 c 0.004,0.0105 0.004,0.0189 0.008,0.0308 0.006,-0.002 0.0126,-0.006 0.0189,-0.006 l -0.027,-0.0252"
         style="fill:#e6e6e6;fill-opacity:1;fill-rule:nonzero;stroke:none;stroke-width:0.27962" />
      <path
         id="path174"
         d="m 393.90567,233.00099 c -0.0363,-0.5984 -0.20971,-1.0318 -1.04298,-1.13528 -0.28242,0.61519 -0.73262,1.2695 -0.85845,1.98532 -0.0866,0.50892 0.46698,1.02901 1.01224,0.78574 0.60119,-0.26564 0.93113,-0.87801 0.88919,-1.63578 z m 11.58749,2.03844 c -6.66615,4.08245 -12.89052,8.93668 -20.05078,12.14673 -3.34008,1.49597 -6.6902,1.64975 -10.29563,0.36629 -2.40643,-0.85564 -1.92127,-2.83254 -1.90282,-4.08245 0.0296,-1.87626 1.88212,-0.51171 2.8661,-0.80531 2.77104,-0.83047 5.70819,1.96013 8.58855,-0.65991 -4.47168,-3.60711 -8.42132,-1.43725 -12.25186,0.90597 -0.75693,0.46138 -1.15149,0.35232 -1.75434,0.0839 -0.99183,-0.439 -0.92499,-1.12129 -0.62803,-2.04123 0.29612,-0.92275 0.30926,-1.77839 1.64054,-1.91261 1.48227,-0.15372 3.26261,1.20797 4.47506,-0.78853 -0.12897,-0.18182 -0.21615,-0.43063 -0.3856,-0.52569 -1.10982,-0.60958 -3.11833,1.63857 -3.37055,-0.5145 -0.22622,-1.93219 1.91791,-1.77839 3.39041,-1.71128 3.53327,0.15372 5.91117,-2.99755 9.25683,-3.37504 0.11241,0.21532 0.10591,0.42782 0.008,0.64035 6.18131,-3.50926 11.80672,-7.87692 17.52498,-12.08244 1.53231,-1.12686 0.45017,-2.42989 -0.5984,-3.48686 -0.36072,-0.36352 -0.60956,-1.0374 0.008,-1.43726 0.27964,-0.17889 0.98707,-0.2209 1.09334,-0.0531 3.33586,5.23729 5.1478,0.006 7.54137,-1.12968 l 0.20972,-0.25445 c 0.59278,0.30478 1.54351,1.02063 1.80634,0.4502 0.76337,-1.66376 1.87346,-0.98147 2.59488,-0.42782 1.73645,1.33937 -1.0206,1.67492 -0.77733,2.98354 2.04682,-2.00488 4.30894,0.19567 6.4872,-0.56204 0.46416,-0.15938 1.84271,1.52673 0.78853,2.93045 -2.13071,2.83814 -3.22962,6.78919 -6.81436,8.09502 -3.96782,1.44285 -6.05101,5.16459 -9.45119,7.24778"
         style="fill:#e6e6e6;fill-opacity:1;fill-rule:nonzero;stroke:none;stroke-width:0.27962" />
      <path
         id="path175"
         d="m 482.76922,236.42634 c -0.008,1.1772 -1.1716,1.61062 -1.57707,2.53337 1.10451,-0.48094 2.84935,-0.55365 1.57707,-2.53337 z m -6.77802,5.04436 c -0.0698,-0.16505 -0.42501,-0.20699 -0.6571,-0.29918 -0.0923,0.23488 -0.30759,0.52567 -0.23767,0.69065 0.0698,0.16505 0.47815,0.32995 0.63754,0.26005 0.16211,-0.0698 0.32434,-0.48933 0.25723,-0.65152 z m -1.63018,2.42991 c -0.27123,-0.28521 -0.52288,-0.59559 -0.82769,-0.83047 -0.0476,-0.0336 -0.44738,0.26004 -0.52848,0.46416 -0.24885,0.61518 0.28521,0.57881 0.62915,0.69068 0.24048,-0.10906 0.48375,-0.21532 0.72702,-0.32437 z m 21.12817,-0.006 c -1.78678,1.94058 -4.43759,0.67109 -6.59346,1.3254 -4.18035,1.27228 -7.61688,3.8448 -11.51759,5.50294 -2.05243,0.87523 -4.23347,1.44006 -6.21879,2.55015 -1.50995,0.84446 -2.96118,0.83886 -4.14956,-0.49772 0.71303,-1.87906 2.12232,0.54805 2.7235,-0.88641 -0.43061,-2.17544 -2.7347,-0.70464 -3.68819,-2.12511 1.67772,-1.49039 3.56796,-2.24255 5.75739,-1.7644 0.81648,0.17889 1.35336,0.0812 1.57427,-0.67948 0.0866,-0.2992 -0.21531,-1.00385 -0.46418,-1.07656 -1.86786,-0.53687 -4.25023,-0.51728 -3.67422,-3.57355 0.57602,-3.04786 3.62109,-4.35649 5.4638,-3.99857 3.37781,0.6571 5.42185,-1.482 8.05028,-2.30968 0.34114,-1.67773 1.57987,-2.36838 2.93323,-1.87624 0.93114,0.33833 -0.57603,1.30302 -0.19021,2.40472 1.29464,-1.61061 2.96957,-2.40472 3.04786,-4.97446 0.0252,-0.86402 2.03005,-4.04331 5.06115,-2.59766 0.4334,0.20699 3.90351,2.24534 3.6043,-1.66095 -0.0503,-0.64313 0.52849,-0.69626 1.15485,-0.6739 4.10482,0.12856 5.95313,-3.34146 8.50607,-5.69028 -1.08774,0.91715 -2.22299,1.71967 -4.11043,1.921 0.89198,-2.46347 3.101,-2.88848 4.37886,-4.28099 1.11009,-1.21078 1.75323,0.0476 1.38413,1.44842 l -0.12583,0.10632 c -0.5201,0.27962 -1.0374,0.55925 -1.5575,0.84166 0.61518,-0.0923 1.24712,-0.15372 1.5575,-0.84166 l 0.12583,-0.10632 c 2.23416,-0.49493 4.32293,-1.34218 5.44982,-3.51203 0.5872,-1.13527 1.7588,-1.45962 2.32644,-1.07655 2.33482,1.57706 4.00416,-0.29639 5.92516,-0.86403 0,0 0.0363,0.0335 0.0728,0.0671 l -0.0839,-0.0728 c 2.04964,-1.53793 2.24816,-1.44285 2.71513,1.32259 2.47186,-1.12965 2.26493,1.17722 2.37677,2.27053 0.19294,1.92938 -1.28904,1.49318 -2.43549,1.32819 -0.13988,-0.97866 -0.28242,-1.95734 -0.42222,-2.93602 -1.36456,1.21635 -1.97972,2.32086 0.37189,2.97518 0.52569,3.78327 -3.40579,3.9147 -4.92692,4.68085 -4.68366,2.35721 -7.76508,6.52076 -11.91185,9.3757 -1.24712,0.86122 -3.05627,1.05976 -3.64906,2.82976 -0.16504,-0.15939 -0.32996,-0.31317 -0.49492,-0.46698 -4.37329,0.79413 -6.99612,4.7228 -10.98072,6.15726 0.41383,1.95176 2.11393,-0.33834 2.63403,1.43445"
         style="fill:#e6e6e6;fill-opacity:1;fill-rule:nonzero;stroke:none;stroke-width:0.27962" />
      <path
         id="path176"
         d="m 524.81863,219.88396 c 0.0224,0.006 0.0363,0.0147 0.0614,0.0224 -0.002,-0.0224 -0.008,-0.0419 -0.0105,-0.0614 -0.0168,-0.002 -0.0336,-0.006 -0.0531,-0.008 0.002,0.0168 0,0.0308 0.002,0.0476"
         style="fill:#e6e6e6;fill-opacity:1;fill-rule:nonzero;stroke:none;stroke-width:0.27962" />
      <path
         id="path177"
         d="m 347.56577,240.5116 c -0.0862,-0.76336 -0.17469,-1.52394 -0.26005,-2.2873 -0.28045,0.65431 -1.30946,1.33939 -0.38755,2.03564 0.17784,0.13422 0.43033,0.1705 0.6476,0.25166 z m 39.06277,-19.31062 c -10.10438,9.11844 -20.67322,17.66085 -31.86254,25.35882 -1.28568,0.88641 -2.98411,1.66095 -4.46638,1.61901 -4.15153,-0.11471 -7.71139,2.52777 -11.82796,2.32644 -1.59693,-0.0782 -2.67822,-1.05697 -2.82922,-2.43828 -0.18559,-1.71128 1.76973,-0.65712 2.60748,-1.63299 -0.85872,-0.25166 -1.63188,-0.51171 -2.42068,-0.70186 -0.54919,-0.13694 -1.13136,-0.29079 -1.16434,-0.93953 -0.0478,-0.91436 0.65123,-1.16602 1.36426,-1.12407 1.58826,0.0923 2.87703,-0.60117 4.12133,-1.4708 -0.87829,-0.10905 -1.9923,0.16777 -2.14524,-1.19679 -0.0229,-0.20971 0.43788,-0.61795 0.734,-0.69065 1.1937,-0.29921 1.71911,0.33275 1.76078,1.50716 2.51967,-3.08144 4.50106,-6.65218 9.28648,-6.88988 1.95512,-0.095 3.99551,-1.64696 5.71574,-2.93042 5.45261,-4.07408 11.63054,-6.96535 16.15258,-12.62209 2.11897,-2.65081 6.27497,-4.11882 9.45791,-6.11532 1.91567,-1.19957 -0.12352,2.2957 0.73707,3.87276 1.89639,-5.07791 3.02577,-0.68787 4.5679,0.4502 -0.5352,-4.49352 1.44395,-3.97621 3.92672,-2.49981 l -0.12667,0.13694 c 0.10381,2.79901 -1.94952,4.4991 -3.58922,5.98109"
         style="fill:#e6e6e6;fill-opacity:1;fill-rule:nonzero;stroke:none;stroke-width:0.27962" />
      <path
         id="path178"
         d="m 436.48636,249.68597 c 0.0335,-0.002 0.0671,-0.002 0.0979,-0.002 -0.0147,-0.0252 -0.0252,-0.0419 -0.0419,-0.0671 l -0.056,0.0698"
         style="fill:#e6e6e6;fill-opacity:1;fill-rule:nonzero;stroke:none;stroke-width:0.27962" />
      <path
         id="path179"
         d="m 453.22167,238.3026 c -0.52569,0.71304 -1.84829,0.71023 -1.89023,2.06919 1.57706,-0.0105 1.71686,-1.05697 1.89023,-2.06919 z m 18.05233,-2.66758 c -5.24289,3.979 -10.05236,8.64308 -15.59446,12.03487 -3.43934,2.10555 -7.18627,4.74797 -11.73569,4.52986 -0.50892,-0.0252 -1.29745,-0.58999 -1.73924,0.77457 -0.89479,2.77103 -3.9846,3.24919 -5.93915,1.15763 -0.47815,-0.50892 -0.8864,-0.97589 0.006,-1.61062 1.44285,-1.02341 1.41768,-1.10172 0.31317,-2.83817 2.74308,-0.0923 5.49734,-0.18455 9.04295,-0.30478 -2.31248,-3.06744 -5.26246,-2.46625 -7.36801,-3.6826 -0.40825,2.3628 -2.00769,1.81194 -3.38901,1.30862 -0.70185,-0.25726 -1.52673,-1.18558 -0.78295,-1.92659 1.09333,-1.09053 2.46626,-0.69626 3.68261,0.0923 0.10632,-1.73923 4.05731,-1.75601 1.92659,-4.50188 2.30128,0.41383 4.09644,-1.9322 6.2048,-1.49878 3.96501,0.8137 5.50294,-2.39355 7.80701,-4.3593 0.49773,-0.42501 0.75218,-1.13525 1.20517,-1.63297 0.53127,-0.57602 1.16602,-1.44284 2.00488,-0.7382 0.87802,0.74099 0.0392,1.42047 -0.38588,2.08877 -0.5816,0.90597 -1.09612,1.85108 -1.63578,2.78222 -0.1705,0.0979 -0.34114,0.19566 -0.51449,0.29641 0.17888,-0.0923 0.3579,-0.18183 0.53406,-0.27125 0.94233,-0.62915 1.23313,-1.98529 3.15972,-1.1772 2.1391,0.90319 2.96119,-2.21459 4.69485,-3.05906 -0.55086,-0.1986 -1.43167,-0.13694 -1.03181,-1.14924 0.11472,-0.2936 0.55365,-0.45298 0.84166,-0.67388 0.20699,0.45578 0.41104,0.90876 0.61516,1.36456 2.58929,-2.41314 6.78361,-3.63228 6.04541,-8.54523 -0.0363,-0.24048 0.53408,-0.85285 0.70185,-0.8109 2.89408,0.75778 4.81787,-2.47184 6.89265,-2.34601 5.2457,0.32156 4.99683,-3.29394 5.06673,-6.39773 0.056,-2.59488 0.50053,-3.67144 3.10939,-2.77664 0.73541,-3.00034 2.08598,-1.26947 3.66862,-0.98707 -1.0318,1.76721 -2.26493,1.12689 -3.22123,1.42607 0.51171,1.30862 -1.45123,1.46522 -1.18559,2.95839 1.96854,-0.40544 5.15062,-3.81682 4.66408,2.61726 1.67213,-2.47186 -0.97587,-4.29219 0.94232,-5.77977 1.57987,0.93393 1.94616,3.26878 4.07408,4.07128 1.08773,0.40825 1.22753,2.30408 -0.34114,3.34987 -7.65882,5.09469 -14.99606,10.65075 -22.33892,16.21522"
         style="fill:#e6e6e6;fill-opacity:1;fill-rule:nonzero;stroke:none;stroke-width:0.27962" />
      <path
         id="path180"
         d="m 526.00142,240.65981 c -0.22089,-0.0923 -0.52009,-0.31598 -0.64871,-0.23769 -0.1705,0.10066 -0.20699,0.43621 -0.30199,0.67109 0.22649,0.0896 0.45299,0.17616 0.67948,0.26286 0.0896,-0.2321 0.18182,-0.46419 0.27122,-0.69626 z m -22.80029,8.32431 c -0.1986,-0.0812 -0.41664,-0.10633 -0.63194,-0.15372 0.0147,0.11178 -0.008,0.2936 0.0447,0.32434 0.18183,0.095 0.39427,0.13695 0.60677,0.20406 -0.006,-0.14827 0.0252,-0.35514 -0.0189,-0.3747 z m -2.71232,-1.14364 -0.32715,0.11744 0.31037,0.13988 z m 58.14159,-29.73212 c 0.41384,0.39708 0.82488,0.79413 1.23871,1.194 0.0392,-0.89201 -0.37189,-1.28906 -1.23871,-1.194 z m -25.56854,19.65177 c -3.56517,4.02095 -9.49314,4.52707 -12.73954,9.02338 -0.81648,1.12965 -1.69729,-1.90703 -2.5893,-0.0336 0.55365,0.25445 0.91158,0.58161 0.30759,1.13247 -0.0279,0.0252 -0.49214,-0.4502 -0.74937,-0.69068 -2.02166,-0.32994 -4.40963,-1.55468 -4.49352,2.28731 -0.0308,1.46522 -1.08213,2.26493 -2.50541,2.01606 -1.26108,-0.21811 -2.03284,0.0476 -2.59488,1.28346 -0.2936,0.64313 -0.74098,1.82033 -1.70568,1.0318 -0.31876,-0.26005 0.10339,-1.4708 0.18728,-2.24815 -0.60958,0.53408 -2.32925,-0.31877 -1.95455,1.34218 0.43061,1.91261 -0.65431,1.26668 -1.51555,1.19399 -0.82769,-0.0698 -2.03005,0.83606 -2.29289,-0.7382 -0.3691,-2.22019 -1.93498,-3.44772 -3.47289,-4.71162 -2.04404,-1.68051 -0.51171,-3.69378 0.25445,-4.73118 0.9507,-1.29745 3.50644,-0.30199 4.30336,0.33833 2.45787,1.98253 3.67143,2.42713 5.84967,0.24608 1.12688,-1.12967 -0.41383,-3.93987 2.3572,-4.19991 0.14827,0.1426 0.2992,0.28521 0.44741,0.43061 -0.13694,0.47257 -0.27404,0.95072 -0.41385,1.42606 2.44109,-1.82591 5.99787,-0.24046 8.36627,-3.84199 1.07094,-1.63018 3.57356,-3.93146 5.99506,-5.30719 2.66759,-1.52115 4.74239,-4.34252 7.51342,-5.41627 4.39286,-1.70289 6.82556,-7.49664 12.65006,-6.11531 2.16147,0.51171 2.4271,-1.73644 3.20167,-3.11218 1.37573,-2.4383 0.27961,-5.57284 2.17265,-7.92166 0.46137,-0.56763 0.32995,-1.79237 1.46241,-1.43445 0.71303,0.22368 0.90876,1.30024 0.61797,1.78678 -1.83432,3.06464 0.37749,4.16355 2.36278,5.41066 0.20406,-0.0896 0.41105,-0.17616 0.61797,-0.26564 -0.0447,0.24048 -0.0866,0.48094 -0.13149,0.72142 l 0.002,0.002 c 1.11848,0.60119 2.5893,-0.0447 3.57077,1.04857 0.55365,-2.81858 3.76368,-2.85771 4.98282,-4.97445 0.92275,0.6683 1.88186,1.29466 2.76267,2.01608 0.86122,0.71022 0.59559,2.44388 0.10905,2.15588 -3.53161,-2.09158 -3.59593,2.47743 -5.70987,2.85771 -1.73644,2.32365 -2.56132,0.11471 -4.1216,-1.6945 0.95351,6.24952 -4.76195,6.11531 -6.6438,9.36731 -0.41943,0.72421 -1.19397,0.16777 -1.21075,-0.17344 -0.0335,-0.74659 0.26563,-1.50995 0.439,-2.26493 -0.68227,0.40265 -1.331,0.87802 -2.04683,1.1828 -3.02269,1.28067 -3.74411,6.33341 -8.49489,5.03599 -2.09156,-0.57043 -1.80913,3.03387 -3.70217,3.58194 1.49317,2.01046 -0.67669,2.08596 -1.44564,2.95559"
         style="fill:#e6e6e6;fill-opacity:1;fill-rule:nonzero;stroke:none;stroke-width:0.27962" />
      <path
         id="path181"
         d="m 706.51635,219.02272 c 0.2936,-0.75497 1.30581,-0.88919 2.15588,-0.93114 1.15763,-0.053 1.9881,-0.69904 2.84093,-1.93217 -4.12161,-0.288 -7.1499,1.91821 -10.1782,3.77488 -2.88568,1.76722 -4.8654,1.61622 -5.77137,-1.56867 -0.72421,-2.56132 -2.81019,-3.1653 -4.31455,-2.93323 -1.31422,0.20133 -2.8885,-0.16777 -4.15237,0.61518 0.0644,0.34672 0.0363,0.77733 0.16777,0.83326 2.48023,1.08493 2.55015,3.63228 1.90701,5.31279 -0.72421,1.89865 -2.60326,3.64627 -5.22333,2.54736 -1.19676,-0.50053 -1.80074,0.26005 -2.346,1.06535 -2.5138,3.72735 -6.74167,4.46276 -10.51655,7.02968 0.47536,-3.03948 4.04053,-2.76546 3.79166,-6.14608 -3.36944,2.55014 -6.46485,4.84305 -9.49593,7.22542 -0.56764,0.4446 -1.30584,1.15482 -0.38309,2.0524 0.52569,0.51171 1.09891,-1.42606 1.39251,0.0147 0.0363,0.17344 -0.75776,2.30409 -2.31526,1.42886 -1.97691,-1.11288 -2.96119,0.57043 -4.11601,1.5631 -2.97238,2.55014 -5.81613,5.55046 -9.72242,1.44003 -0.64592,-0.68506 -1.49599,-0.64592 -2.24257,-0.21529 -0.24046,0.13988 -0.37468,0.99543 -0.36071,1.00103 3.3135,1.30584 2.76267,6.51797 6.7976,7.05763 0.15938,-0.34112 0.31876,-0.68227 0.47534,-1.02341 0.16777,0.16211 0.33554,0.32157 0.50613,0.48654 -0.32437,0.18182 -0.64593,0.36631 -0.96751,0.55086 0.16211,0.8864 0.84725,1.89304 1.50717,1.36174 2.70952,-2.16984 5.81332,-1.12965 8.73535,-1.44842 0.82209,-0.0896 1.59384,-0.056 2.23419,-0.71303 2.6508,-2.72912 6.17682,-4.40684 8.56479,-7.4603 -0.16211,2.29569 0.83886,1.72248 1.59103,0.54526 4.69205,-7.33445 12.63887,-10.23132 19.47839,-14.39208 3.55121,-2.16148 8.13979,-2.40754 9.96012,-7.14154"
         style="fill:#e6e6e6;fill-opacity:1;fill-rule:nonzero;stroke:none;stroke-width:0.27962" />
      <path
         id="path182"
         d="m 698.03823,218.77945 c 0.34115,0.75779 1.1073,0.24608 1.70011,-0.10905 1.4652,-0.878 2.69832,-2.18662 5.04714,-2.20061 -0.86682,-0.87242 -1.22753,-1.5519 -1.59942,-1.56029 -1.85948,-0.0279 -3.33028,1.94896 -5.37992,1.15204 0.056,0.91717 -0.11744,1.94058 0.23209,2.71791"
         style="fill:#e6e6e6;fill-opacity:1;fill-rule:nonzero;stroke:none;stroke-width:0.27962" />
      <path
         id="path183"
         d="m 649.24436,247.54406 c -0.64592,-1.53231 -2.10273,-1.87345 -3.67422,-1.62179 -0.59559,0.095 -1.17441,0.46137 -0.98986,1.01223 0.55086,1.60781 1.72248,2.7291 3.27996,3.3107 0.46418,0.17344 1.12129,-0.0698 0.82208,-0.84725 -0.13694,-0.3579 -0.52288,-0.61237 -0.79411,-0.91436 v 0 c 0.70184,0.0279 1.68612,-0.15666 1.35615,-0.93953"
         style="fill:#e6e6e6;fill-opacity:1;fill-rule:nonzero;stroke:none;stroke-width:0.27962" />
      <path
         id="path184"
         d="m 496.97398,251.99843 c -0.97868,0.0614 -2.31808,0.63474 -2.09997,1.89304 0.20405,1.16042 1.25829,2.00767 2.41873,2.26772 1.89302,-0.1315 0.96749,-1.71128 1.30582,-2.55294 0.53408,-1.32819 -0.89477,-1.64977 -1.62458,-1.60782"
         style="fill:#e6e6e6;fill-opacity:1;fill-rule:nonzero;stroke:none;stroke-width:0.27962" />
      <path
         id="path185"
         d="m 666.31243,217.44847 c 0.2265,0.45018 0.62355,1.27786 1.04298,0.6515 0.9004,-1.34497 3.41139,-0.56203 3.43934,-2.8717 0.63475,-0.16777 1.46522,-0.14827 1.38134,-1.12967 -0.0252,-0.27683 -0.44739,-0.72143 -0.70465,-0.73539 -0.92275,-0.0503 -0.97308,0.75776 -1.12128,1.42606 -1.26948,0.35791 -2.54734,0.68506 -3.80563,1.08214 -1.06817,0.33554 -0.52291,0.99825 -0.2321,1.57706"
         style="fill:#e6e6e6;fill-opacity:1;fill-rule:nonzero;stroke:none;stroke-width:0.27962" />
      <path
         id="path186"
         d="m 679.15264,224.53686 c 2.058,-0.0614 3.27714,-1.4121 5.45819,-3.24921 -3.59034,-0.26843 -4.43199,1.61343 -5.45819,3.24921"
         style="fill:#e6e6e6;fill-opacity:1;fill-rule:nonzero;stroke:none;stroke-width:0.27962" />
      <path
         id="path187"
         d="m 403.88814,245.0163 c -1.25829,1.22753 -3.42256,-0.32716 -4.33413,1.70849 -0.0698,0.15372 0.3691,0.78014 0.62357,0.81927 1.73923,0.24887 3.07862,-0.40544 3.71056,-2.52776"
         style="fill:#e6e6e6;fill-opacity:1;fill-rule:nonzero;stroke:none;stroke-width:0.27962" />
      <path
         id="path188"
         d="m 435.3455,213.29889 c 1.45402,0.0105 1.44564,-1.54072 1.77839,-2.75147 -0.90597,0.78853 -2.64802,-1.19958 -3.00592,0.86124 -0.16777,0.96469 0.56483,1.88744 1.22753,1.89023"
         style="fill:#e6e6e6;fill-opacity:1;fill-rule:nonzero;stroke:none;stroke-width:0.27962" />
      <path
         id="path189"
         d="m 464.16605,224.6543 c -0.59281,1.90701 -0.86403,3.22124 0.0147,5.461 1.64696,-2.07199 1.57146,-3.45611 -0.0147,-5.461"
         style="fill:#e6e6e6;fill-opacity:1;fill-rule:nonzero;stroke:none;stroke-width:0.27962" />
      <path
         id="path190"
         d="m 695.57198,214.92907 c 0.74658,-0.37749 1.91539,-0.4446 2.05242,-1.99368 -0.26844,-0.47536 -0.83886,-0.64593 -1.54632,-0.64314 -1.02341,0.006 -1.80634,0.0531 -1.55468,1.56308 0.13694,0.80812 0.22649,1.48759 1.04858,1.07374"
         style="fill:#e6e6e6;fill-opacity:1;fill-rule:nonzero;stroke:none;stroke-width:0.27962" />
      <path
         id="path191"
         d="m 366.94153,217.53515 c 0.74269,-0.44181 1.88858,-0.46138 2.04152,-1.6973 -0.16043,-0.92556 -0.86178,-0.95072 -1.51834,-0.85006 -1.02677,0.15666 -1.74091,0.75779 -1.68303,1.89864 0.0338,0.67388 0.68898,0.92833 1.15985,0.64872"
         style="fill:#e6e6e6;fill-opacity:1;fill-rule:nonzero;stroke:none;stroke-width:0.27962" />
      <path
         id="path192"
         d="m 682.65909,243.07292 c 1.07653,1.58267 1.9126,2.7403 3.60711,2.4411 0.0147,-2.47744 -1.7085,-2.19783 -3.60711,-2.4411"
         style="fill:#e6e6e6;fill-opacity:1;fill-rule:nonzero;stroke:none;stroke-width:0.27962" />
      <path
         id="path193"
         d="m 563.1239,212.69212 c 0,0.0147 0,0.0279 0,0.0447 v 0 h 0.002 c 0.0105,-0.0147 0.0224,-0.0252 0.0335,-0.042 -0.0105,-0.006 -0.0252,0 -0.0363,-0.002"
         style="fill:#e6e6e6;fill-opacity:1;fill-rule:nonzero;stroke:none;stroke-width:0.27962" />
      <path
         id="path194"
         d="m 561.68385,210.99201 c -0.64033,0.14261 -0.8836,0.70744 -0.75498,1.26109 0.39147,1.72806 1.47082,0.21252 2.19503,0.43902 0.0392,-1.02063 0.0392,-2.01887 -1.44005,-1.70011"
         style="fill:#e6e6e6;fill-opacity:1;fill-rule:nonzero;stroke:none;stroke-width:0.27962" />
      <path
         id="path195"
         d="m 470.39599,218.25378 c 0.33275,-0.53129 0.70745,-0.92556 0.85006,-1.39532 0.2936,-0.98705 -0.42503,-1.13805 -1.11569,-1.11569 -0.55646,0.0168 -1.53512,-0.20699 -1.12408,0.91436 0.20699,0.56764 0.82767,0.97589 1.38971,1.59665"
         style="fill:#e6e6e6;fill-opacity:1;fill-rule:nonzero;stroke:none;stroke-width:0.27962" />
      <path
         id="path196"
         d="m 464.59944,243.04776 c -0.28521,-0.0644 -0.98985,0.60119 -1.04298,1.00384 -0.0979,0.75777 0.57603,1.21915 1.23313,1.34219 0.53688,0.10066 1.06257,-0.16505 1.0318,-1.35617 0.0147,-0.40266 -0.60398,-0.85843 -1.22195,-0.98986"
         style="fill:#e6e6e6;fill-opacity:1;fill-rule:nonzero;stroke:none;stroke-width:0.27962" />
      <path
         id="path197"
         d="m 498.43918,221.50576 c 0.88361,0.1426 1.13806,-0.51729 1.08494,-1.27786 -0.0419,-0.55644 -0.2181,-1.07096 -0.91157,-1.1017 -0.69626,0.0252 -0.85564,0.52288 -0.88641,1.0961 -0.0279,0.57602 0.11472,1.18839 0.71304,1.28346"
         style="fill:#e6e6e6;fill-opacity:1;fill-rule:nonzero;stroke:none;stroke-width:0.27962" />
      <path
         id="path198"
         d="m 470.43514,219.21566 c -0.77454,0.28243 -0.69626,1.07656 -0.64871,1.71967 0.0189,0.25447 0.41943,0.47815 0.80531,0.88641 0.37748,-0.78575 0.7997,-1.3394 0.89477,-1.94338 0.12017,-0.76055 -0.56204,-0.83886 -1.05137,-0.6627"
         style="fill:#e6e6e6;fill-opacity:1;fill-rule:nonzero;stroke:none;stroke-width:0.27962" />
      <path
         id="path199"
         d="m 667.00309,211.15979 c -1.50995,0.69904 -2.55572,1.26389 -1.89583,3.19328 1.23873,-0.71304 2.12232,-1.38134 1.89583,-3.19328"
         style="fill:#e6e6e6;fill-opacity:1;fill-rule:nonzero;stroke:none;stroke-width:0.27962" />
      <path
         id="path200"
         d="m 478.32324,215.67008 c -0.29079,0.89758 0.51452,0.78853 0.91996,0.8081 0.59281,0.0279 1.32541,0.13422 1.63019,-0.94513 -0.31317,-0.27122 -0.64593,-0.78293 -1.07094,-0.88359 -0.71584,-0.1705 -1.2555,0.32994 -1.47921,1.02062"
         style="fill:#e6e6e6;fill-opacity:1;fill-rule:nonzero;stroke:none;stroke-width:0.27962" />
      <path
         id="path201"
         d="m 337.07663,214.35026 c 0.95154,-0.20699 0.88389,-1.18838 1.38412,-2.15307 -0.45242,-0.095 -1.01251,-0.39148 -1.21914,-0.22649 -0.4706,0.38306 -0.92304,0.93952 -1.0922,1.51553 -0.16924,0.57323 0.31009,0.99824 0.92722,0.86403"
         style="fill:#e6e6e6;fill-opacity:1;fill-rule:nonzero;stroke:none;stroke-width:0.27962" />
      <path
         id="path202"
         d="m 369.80877,215.73438 c -0.13758,0.65991 0.35177,0.87802 0.89563,0.96469 0.54386,-0.14827 0.94708,-0.46137 0.87271,-1.07653 -0.0763,-0.65153 -0.58555,-0.83886 -1.10648,-0.65153 -0.28073,0.0979 -0.59838,0.46419 -0.66186,0.76337"
         style="fill:#e6e6e6;fill-opacity:1;fill-rule:nonzero;stroke:none;stroke-width:0.27962" />
      <path
         id="path203"
         d="m 730.38758,217.44566 c 0.56764,0.0252 0.9563,-0.42782 1.11569,-1.34497 -0.13422,-0.21531 -0.39146,-0.62355 -0.64872,-1.02901 -0.32436,0.41943 -0.67109,0.81929 -0.9619,1.25829 -0.40823,0.61797 -0.15938,1.09052 0.49493,1.11569"
         style="fill:#e6e6e6;fill-opacity:1;fill-rule:nonzero;stroke:none;stroke-width:0.27962" />
      <path
         id="path204"
         d="m 368.65197,213.28771 c 0.7494,0.2181 1.21245,-0.27125 1.50409,-0.94513 0.31037,-0.63753 -0.28186,-0.69065 -0.56678,-0.73541 -0.64565,-0.10339 -1.39056,-0.11744 -1.47586,0.80252 -0.026,0.28522 0.28635,0.80531 0.53855,0.87802"
         style="fill:#e6e6e6;fill-opacity:1;fill-rule:nonzero;stroke:none;stroke-width:0.27962" />
      <path
         id="path205"
         d="m 484.54761,209.56595 c 0.0587,-0.20972 -0.0671,-0.68787 -0.16505,-0.70186 -1.18559,-0.20133 -1.90422,0.61797 -2.64242,1.36735 0.151,0.14261 0.30199,0.28242 0.4502,0.42503 0.85843,-0.20972 1.99089,0.18182 2.3572,-1.09052"
         style="fill:#e6e6e6;fill-opacity:1;fill-rule:nonzero;stroke:none;stroke-width:0.27962" />
      <path
         id="path206"
         d="m 655.14717,210.40202 c 0.25445,-0.0782 0.38866,-0.56485 0.66549,-1.00106 -0.41662,-0.20405 -0.75498,-0.52009 -1.00104,-0.45577 -0.27682,0.0698 -0.62635,0.46137 -0.66549,0.74938 -0.095,0.74939 0.5145,0.85285 1.00104,0.70745"
         style="fill:#e6e6e6;fill-opacity:1;fill-rule:nonzero;stroke:none;stroke-width:0.27962" />
      <path
         id="path207"
         d="m 554.31026,209.8204 c -0.30199,0.008 -0.75779,0.27682 -0.86403,0.55365 -0.2181,0.55646 0.0419,1.02062 0.69905,0.91996 0.28521,-0.0447 0.52569,-0.38028 0.89758,-0.66831 -0.30478,-0.3579 -0.52288,-0.80809 -0.7326,-0.8053"
         style="fill:#e6e6e6;fill-opacity:1;fill-rule:nonzero;stroke:none;stroke-width:0.27962" />
      <path
         id="path208"
         d="m 557.4504,210.31814 c 0.92835,-0.008 0.74099,-0.84726 0.86963,-1.43727 0.8752,0.6683 1.84828,1.24433 2.74306,0.24327 0.20971,-0.23207 -0.13422,-1.35057 -0.52849,-1.71686 -1.44563,-1.33939 -1.94614,0.1986 -2.64239,1.06536 -0.59002,0.2181 -1.33101,0.34112 -1.19119,1.21914 0.0392,0.25445 0.48933,0.62914 0.74938,0.62636"
         style="fill:#e6e6e6;fill-opacity:1;fill-rule:nonzero;stroke:none;stroke-width:0.27962" />
      <path
         id="path209"
         d="m 554.55353,207.8994 c 0.31038,-0.57043 -0.23769,-0.60677 -1.1073,-0.97308 -0.0476,0.15099 -0.27682,0.52848 -0.25166,0.88919 0.0224,0.28803 0.34673,0.55646 0.53688,0.83329 0.27961,-0.24608 0.65431,-0.43902 0.82208,-0.7494"
         style="fill:#e6e6e6;fill-opacity:1;fill-rule:nonzero;stroke:none;stroke-width:0.27962" />
      <path
         id="path210"
         d="m 518.78441,209.11856 c 0.33274,0.0189 0.82488,-0.15938 0.49212,-0.94791 -0.17616,-0.10906 -0.48373,-0.43342 -0.8081,-0.45299 -0.16504,-0.0105 -0.55924,0.59278 -0.49492,0.8025 0.0839,0.27403 0.51449,0.57881 0.8109,0.5984"
         style="fill:#e6e6e6;fill-opacity:1;fill-rule:nonzero;stroke:none;stroke-width:0.27962" />
      <path
         id="path211"
         d="m 657.38972,237.76013 c -0.11178,0.23767 0.20406,0.68787 0.60679,1.83711 0.46417,-0.90318 0.76056,-1.36456 0.93953,-1.86506 0.17889,-0.49774 0.20405,-1.17162 -0.51731,-1.05978 -0.39986,0.0614 -0.82208,0.64035 -1.02901,1.08773"
         style="fill:#e6e6e6;fill-opacity:1;fill-rule:nonzero;stroke:none;stroke-width:0.27962" />
      <path
         id="path212"
         d="m 498.54265,240.8751 c -0.0698,0.72981 0.5145,0.90319 1.03459,0.7438 0.25726,-0.0782 0.39427,-0.57881 0.66549,-1.01781 -0.43061,-0.21532 -0.77454,-0.53408 -1.04577,-0.47815 -0.26564,0.0531 -0.62635,0.46695 -0.65431,0.75216"
         style="fill:#e6e6e6;fill-opacity:1;fill-rule:nonzero;stroke:none;stroke-width:0.27962" />
      <path
         id="path213"
         d="m 757.49124,225.468 c 0.41385,-0.26844 0.68508,-0.77175 1.1129,-1.28627 -0.50332,-0.15666 -0.96748,-0.45856 -1.1884,-0.32995 -0.41943,0.24606 -0.94231,0.71864 -0.98147,1.14086 -0.0644,0.72142 0.62076,0.75497 1.05697,0.47536"
         style="fill:#e6e6e6;fill-opacity:1;fill-rule:nonzero;stroke:none;stroke-width:0.27962" />
      <path
         id="path214"
         d="m 458.67428,232.07824 c 0.59559,0.1231 1.0374,-0.23769 0.89199,-0.90318 -0.0644,-0.29081 -0.45299,-0.50892 -0.8025,-0.87242 -0.30759,0.40825 -0.68508,0.68787 -0.67948,0.9563 0.008,0.29082 0.33273,0.76616 0.58999,0.8193"
         style="fill:#e6e6e6;fill-opacity:1;fill-rule:nonzero;stroke:none;stroke-width:0.27962" />
      <path
         id="path215"
         d="m 498.85303,224.62075 c -0.14533,0.52288 0.0392,1.11848 0.74378,1.06254 0.29641,-0.0252 0.57042,-0.36071 0.98147,-0.63753 -0.32995,-0.39427 -0.53128,-0.85564 -0.78853,-0.8892 -0.302,-0.0392 -0.86961,0.22092 -0.93672,0.46419"
         style="fill:#e6e6e6;fill-opacity:1;fill-rule:nonzero;stroke:none;stroke-width:0.27962" />
      <path
         id="path216"
         d="m 747.90585,218.11117 c -0.46698,-0.67669 -0.91996,-1.482 -1.90143,-0.91996 -0.26005,0.14534 -0.33276,0.63754 -0.49214,0.97029 0.64873,0.14534 1.29745,0.29361 1.94616,0.44179 0.14827,-0.16505 0.29641,-0.32716 0.44741,-0.49212"
         style="fill:#e6e6e6;fill-opacity:1;fill-rule:nonzero;stroke:none;stroke-width:0.27962" />
      <path
         id="path217"
         d="m 384.5915,213.58131 c 0.35623,-0.12583 0.68703,-0.33275 0.8137,-0.39426 -0.32101,-0.87523 -0.49577,-1.33661 -0.98959,-1.05697 -0.29165,0.16505 -0.60622,0.56483 -0.6269,0.878 -0.0283,0.41385 0.31344,0.74658 0.80279,0.57323"
         style="fill:#e6e6e6;fill-opacity:1;fill-rule:nonzero;stroke:none;stroke-width:0.27962" />
      <path
         id="path218"
         d="m 686.33049,245.51402 c -0.0252,0.006 -0.0392,-0.006 -0.0644,0 0,0.0308 0.006,0.0503 0.006,0.0839 0.0189,-0.0168 0.0392,-0.0308 0.0615,-0.0447 0,-0.0147 0,-0.0279 -0.002,-0.0419 v 0.002"
         style="fill:#e6e6e6;fill-opacity:1;fill-rule:nonzero;stroke:none;stroke-width:0.27962" />
      <path
         id="path219"
         d="m 686.35287,246.35288 c -0.008,0 -0.0189,-0.002 -0.0279,-0.002 0.006,0.008 0.0147,0.0147 0.0189,0.0224 0.002,0 0.006,0 0.008,0.002 0,-0.008 0,-0.0147 0,-0.0224"
         style="fill:#e6e6e6;fill-opacity:1;fill-rule:nonzero;stroke:none;stroke-width:0.27962" />
      <path
         id="path220"
         d="m 436.48636,249.68597 0.056,-0.0698 c -0.0308,-0.002 -0.0614,0.008 -0.0923,0.008 0.0105,0.0224 0.0224,0.0419 0.0363,0.0614"
         style="fill:#e6e6e6;fill-opacity:1;fill-rule:nonzero;stroke:none;stroke-width:0.27962" />
      <path
         id="path221"
         d="m 435.09944,248.61781 c -0.0979,0.0168 -0.25447,0.45858 -0.19021,0.62076 0.33555,0.83047 0.98986,0.39986 1.5407,0.38587 -0.30757,-0.53687 -0.59278,-1.12407 -1.35057,-1.00663"
         style="fill:#e6e6e6;fill-opacity:1;fill-rule:nonzero;stroke:none;stroke-width:0.27962" />
      <path
         id="path222"
         d="m 752.74049,221.73506 c 0.0896,-0.37191 0.0224,-0.86684 -0.50053,-0.78295 -0.71022,0.11471 -1.06255,0.65431 -1.12127,1.38693 l 0.0728,0.0839 c 0.64874,0.0782 1.33661,0.19294 1.54911,-0.68787"
         style="fill:#e6e6e6;fill-opacity:1;fill-rule:nonzero;stroke:none;stroke-width:0.27962" />
      <path
         id="path223"
         d="m 512.21891,216.15662 c 0.38308,0.0252 0.83047,-0.20133 0.60119,-0.64034 -0.13422,-0.26005 -0.6739,-0.29919 -0.76618,-0.33555 -0.74099,-0.008 -1.11288,0.23209 -0.88638,0.64592 0.12855,0.24328 0.68227,0.30481 1.05137,0.32997"
         style="fill:#e6e6e6;fill-opacity:1;fill-rule:nonzero;stroke:none;stroke-width:0.27962" />
      <path
         id="path224"
         d="m 637.93091,210.69562 c -0.18455,-0.2936 -0.35513,-0.5984 -0.57602,-0.86124 -0.0224,-0.0279 -0.50053,0.2209 -0.48933,0.31317 0.0308,0.30759 0.18727,0.60119 0.30478,0.93114 0.34114,-0.1705 0.55086,-0.27682 0.76057,-0.38307"
         style="fill:#e6e6e6;fill-opacity:1;fill-rule:nonzero;stroke:none;stroke-width:0.27962" />
      <path
         id="path225"
         d="m 529.70641,214.19368 c 0.11178,0.0728 0.56762,-0.15099 0.56204,-0.19294 -0.0476,-0.33835 -0.0839,-0.84446 -0.29082,-0.94791 -0.24327,-0.11744 -0.65431,0.11471 -1.16601,0.23767 0.37748,0.39705 0.60119,0.70743 0.89479,0.90318"
         style="fill:#e6e6e6;fill-opacity:1;fill-rule:nonzero;stroke:none;stroke-width:0.27962" />
      <path
         id="path226"
         d="m 513.60863,206.96268 c -0.056,-0.32996 -0.0979,-0.83886 -0.29641,-0.92275 -0.26284,-0.11177 -0.65989,0.10906 -1.96013,0.41105 0.97308,0.41662 1.31141,0.61237 1.67212,0.69344 0.18183,0.042 0.59,-0.15099 0.58442,-0.18182"
         style="fill:#e6e6e6;fill-opacity:1;fill-rule:nonzero;stroke:none;stroke-width:0.27962" />
      <path
         id="path227"
         d="m 515.23881,209.09897 c -0.20405,-0.26562 -0.41104,-0.62633 -0.47255,-0.60117 -0.32997,0.13422 -0.62357,0.3635 -0.93114,0.55923 0.18455,0.27964 0.36629,0.56485 0.54805,0.84446 0.27962,-0.26283 0.56204,-0.52569 0.85564,-0.80252"
         style="fill:#e6e6e6;fill-opacity:1;fill-rule:nonzero;stroke:none;stroke-width:0.27962" />
      <path
         id="path228"
         d="m 545.95238,218.12235 c -0.20406,-0.26284 -0.39985,-0.61797 -0.46977,-0.5928 -0.33273,0.11471 -0.62915,0.33554 -0.93671,0.5173 0.17888,0.26844 0.3579,0.53687 0.53687,0.80531 0.28521,-0.24048 0.56761,-0.47815 0.86961,-0.72981"
         style="fill:#e6e6e6;fill-opacity:1;fill-rule:nonzero;stroke:none;stroke-width:0.27962" />
      <path
         id="path229"
         d="m 539.0094,216.97032 c 0.34112,-0.80531 -0.1705,-0.83048 -0.51171,-0.84446 -0.20405,-0.008 -0.59559,0.24887 -0.59001,0.3691 0.0168,0.35232 0.19294,0.69346 0.30759,1.0374 0.30478,-0.21532 0.60958,-0.43063 0.79413,-0.56204"
         style="fill:#e6e6e6;fill-opacity:1;fill-rule:nonzero;stroke:none;stroke-width:0.27962" />
      <path
         id="path230"
         d="m 724.26388,244.53255 c -0.10066,0.46418 0.23209,0.60958 0.60958,0.5117 0.2125,-0.056 0.38867,-0.26005 0.58999,-0.40544 -0.20405,-0.13422 -0.39426,-0.35232 -0.59838,-0.37189 -0.20133,-0.0189 -0.57322,0.13149 -0.60119,0.26563"
         style="fill:#e6e6e6;fill-opacity:1;fill-rule:nonzero;stroke:none;stroke-width:0.27962" />
      <path
         id="path231"
         d="m 503.83866,244.46825 c 0.21251,0.0979 0.42782,0.19294 0.64033,0.288 0.095,-0.0866 0.19021,-0.17616 0.28521,-0.26284 -0.21529,-0.095 -0.42222,-0.22091 -0.64871,-0.27403 -0.0698,-0.0168 -0.18455,0.16211 -0.27683,0.24887"
         style="fill:#e6e6e6;fill-opacity:1;fill-rule:nonzero;stroke:none;stroke-width:0.27962" />
      <path
         id="path232"
         d="m 376.84068,215.31776 c 0.10297,-0.4502 -0.20636,-0.61797 -0.58859,-0.51731 -0.20741,0.056 -0.37805,0.25726 -0.57462,0.39987 0.19776,0.13694 0.37692,0.3579 0.57798,0.37749 0.19315,0.0224 0.55476,-0.12583 0.58523,-0.26005"
         style="fill:#e6e6e6;fill-opacity:1;fill-rule:nonzero;stroke:none;stroke-width:0.27962" />
      <path
         id="path233"
         d="m 410.16284,213.67078 c -0.1315,0.15099 -0.26565,0.30759 -0.39987,0.45858 0.29641,0.151 0.5928,0.2992 0.88641,0.44739 l 0.20971,-0.25166 c -0.23209,-0.2181 -0.46416,-0.43621 -0.69625,-0.65431"
         style="fill:#e6e6e6;fill-opacity:1;fill-rule:nonzero;stroke:none;stroke-width:0.27962" />
      <path
         id="path234"
         d="m 477.65496,212.00425 c 0.151,0.13988 0.29918,0.2824 0.44739,0.42501 0.46416,-0.10066 0.92554,-0.1986 1.38691,-0.29918 -0.56483,-0.68508 -1.14085,-1.23594 -1.8343,-0.12583"
         style="fill:#e6e6e6;fill-opacity:1;fill-rule:nonzero;stroke:none;stroke-width:0.27962" />
      <path
         id="path235"
         d="m 471.62073,213.22899 c 0.12855,-0.0392 0.18455,-0.33276 0.27682,-0.51731 -0.22649,-0.0979 -0.47255,-0.2992 -0.63193,-0.24327 -0.23489,0.0755 -0.87802,0.151 -0.30759,0.64872 0.15372,0.13149 0.46418,0.17343 0.6627,0.11178"
         style="fill:#e6e6e6;fill-opacity:1;fill-rule:nonzero;stroke:none;stroke-width:0.27962" />
      <path
         id="path236"
         d="m 514.26573,212.08533 c -0.0979,0.44459 0.18728,0.64592 0.5928,0.53687 0.20972,-0.056 0.38028,-0.26284 0.57601,-0.41104 -0.20133,-0.13989 -0.38307,-0.36072 -0.5872,-0.38588 -0.19022,-0.0252 -0.55365,0.12855 -0.58161,0.26005"
         style="fill:#e6e6e6;fill-opacity:1;fill-rule:nonzero;stroke:none;stroke-width:0.27962" />
      <path
         id="path237"
         d="m 474.71613,217.9434 c -0.0279,-0.12856 -0.32994,-0.19567 -0.50611,-0.29081 -0.0503,0.44459 -0.10339,0.88919 -0.15665,1.33379 0.49771,-0.15372 0.78853,-0.47815 0.6627,-1.04298"
         style="fill:#e6e6e6;fill-opacity:1;fill-rule:nonzero;stroke:none;stroke-width:0.27962" />
      <path
         id="path238"
         d="m 474.05343,218.98638 c -0.0224,0.008 -0.0392,0.0189 -0.0614,0.0252 l 0.0531,0.0531 c 0.002,-0.0252 0.006,-0.0531 0.008,-0.0782"
         style="fill:#e6e6e6;fill-opacity:1;fill-rule:nonzero;stroke:none;stroke-width:0.27962" />
      <path
         id="path239"
         d="m 584.02837,217.02065 c 0.13149,-0.0419 0.19021,-0.33276 0.27961,-0.51731 -0.22928,-0.095 -0.47255,-0.29639 -0.63473,-0.24327 -0.23209,0.0782 -0.87522,0.151 -0.30199,0.64872 0.151,0.13149 0.46138,0.1705 0.65711,0.11178"
         style="fill:#e6e6e6;fill-opacity:1;fill-rule:nonzero;stroke:none;stroke-width:0.27962" />
      <path
         id="path240"
         d="m 699.47269,213.10595 c 0.10905,0.0189 0.27122,-0.25726 0.41943,-0.40825 -0.22928,-0.10067 -0.43061,-0.21811 -0.64592,-0.26284 -0.0671,-0.0147 -0.17344,0.1705 -0.26284,0.26565 0.15938,0.1426 0.30757,0.37188 0.48933,0.40544"
         style="fill:#e6e6e6;fill-opacity:1;fill-rule:nonzero;stroke:none;stroke-width:0.27962" />
      <path
         id="path241"
         d="m 461.98779,229.8105 c 0.006,-0.20972 -0.16505,-0.42782 -0.27403,-0.66828 -0.15666,0.15938 -0.39985,0.2936 -0.41105,0.44179 -0.0105,0.1986 0.16211,0.40546 0.25447,0.60679 0.15372,-0.12583 0.42782,-0.24887 0.43061,-0.3803"
         style="fill:#e6e6e6;fill-opacity:1;fill-rule:nonzero;stroke:none;stroke-width:0.27962" />
      <path
         id="path242"
         d="m 495.51714,228.36766 c 0.19294,0.0189 0.55365,-0.12856 0.58442,-0.26563 0.10339,-0.44741 -0.19294,-0.62636 -0.58721,-0.51731 -0.20698,0.056 -0.37748,0.26005 -0.57602,0.40266 0.1986,0.13988 0.37749,0.36071 0.57881,0.38028"
         style="fill:#e6e6e6;fill-opacity:1;fill-rule:nonzero;stroke:none;stroke-width:0.27962" />
      <path
         id="path243"
         d="m 502.98302,241.33369 c 0.0782,0.0587 0.20699,0.0419 0.31598,0.0587 -0.0279,-0.151 -0.0503,-0.30478 -0.0782,-0.45578 -0.0979,0.0392 -0.19567,0.0782 -0.2936,0.11744 0.0168,0.095 0,0.23768 0.056,0.27962"
         style="fill:#e6e6e6;fill-opacity:1;fill-rule:nonzero;stroke:none;stroke-width:0.27962" />
      <path
         id="path244"
         d="m 640.16787,217.25553 c 0.12855,-0.15372 0.16777,-0.47257 0.10905,-0.6739 -0.0363,-0.13422 -0.32156,-0.19294 -0.50051,-0.28521 -0.095,0.23209 -0.2936,0.48375 -0.24048,0.64873 0.0782,0.23767 0.14827,0.89759 0.63194,0.31038"
         style="fill:#e6e6e6;fill-opacity:1;fill-rule:nonzero;stroke:none;stroke-width:0.27962" />
      <path
         id="path245"
         d="m 355.73267,226.67875 c 0.13338,0.16211 0.26116,0.44739 0.40517,0.45859 0.21307,0.0168 0.4404,-0.16505 0.68059,-0.27125 -0.14093,-0.16777 -0.27207,-0.45298 -0.41413,-0.46137 -0.22062,-0.008 -0.44766,0.17343 -0.67163,0.27403"
         style="fill:#e6e6e6;fill-opacity:1;fill-rule:nonzero;stroke:none;stroke-width:0.27962" />
      <path
         id="path246"
         d="m 725.43271,214.71936 c 0.18455,-0.0147 0.35511,-0.22929 0.54245,-0.3691 -0.24885,-0.0923 -0.47255,-0.20406 -0.70744,-0.24606 -0.0755,-0.0147 -0.18182,0.15372 -0.27403,0.23767 0.14533,0.13422 0.30199,0.38868 0.43902,0.37749"
         style="fill:#e6e6e6;fill-opacity:1;fill-rule:nonzero;stroke:none;stroke-width:0.27962" />
      <path
         id="path247"
         d="m 466.46453,224.19572 c -0.0979,0.0447 -0.26844,0.0755 -0.28242,0.13988 -0.0363,0.20133 -0.0147,0.41383 -0.0147,0.62355 0.18727,-0.0447 0.37469,-0.0866 0.56203,-0.1315 -0.0896,-0.2125 -0.17616,-0.42222 -0.26564,-0.63193"
         style="fill:#e6e6e6;fill-opacity:1;fill-rule:nonzero;stroke:none;stroke-width:0.27962" />
      <path
         id="path248"
         d="m 596.87415,222.03984 c -0.0896,-0.10339 -0.16778,-0.26844 -0.27683,-0.29639 -0.59559,-0.14261 -1.0206,0.12855 -1.3254,0.64032 0.10339,0.11178 0.20699,0.22371 0.31038,0.33834 0.43063,-0.22928 0.86124,-0.45578 1.29185,-0.68227"
         style="fill:#e6e6e6;fill-opacity:1;fill-rule:nonzero;stroke:none;stroke-width:0.27962" />
      <path
         id="path249"
         d="m 532.511,224.576 c 0.1986,-0.0614 0.37749,-0.18183 0.56483,-0.28241 -0.1231,-0.13988 -0.24606,-0.27963 -0.40266,-0.45579 -0.1426,0.1705 -0.28521,0.31876 -0.38306,0.49214 -0.0168,0.0336 0.17343,0.26283 0.22089,0.24606"
         style="fill:#e6e6e6;fill-opacity:1;fill-rule:nonzero;stroke:none;stroke-width:0.27962" />
      <path
         id="path250"
         d="m 728.15062,216.29363 c 0.20133,-0.0755 0.38588,-0.20972 0.57601,-0.32156 -0.20133,-0.0896 -0.39984,-0.19566 -0.60956,-0.24608 -0.0476,-0.0105 -0.13988,0.19294 -0.20972,0.2992 0.0812,0.095 0.20133,0.28522 0.24327,0.26844"
         style="fill:#e6e6e6;fill-opacity:1;fill-rule:nonzero;stroke:none;stroke-width:0.27962" />
      <path
         id="path251"
         d="m 497.37103,225.73644 c 0.1705,-0.0105 0.32716,-0.24887 0.48654,-0.38869 -0.20699,-0.095 -0.41104,-0.2181 -0.62915,-0.26844 -0.0728,-0.0168 -0.18455,0.15373 -0.27682,0.2377 0.13988,0.15099 0.288,0.42782 0.41943,0.41943"
         style="fill:#e6e6e6;fill-opacity:1;fill-rule:nonzero;stroke:none;stroke-width:0.27962" />
      <path
         id="path252"
         d="m 487.28511,233.38406 -0.10905,-0.27683 -0.151,0.25447 z"
         style="fill:#e6e6e6;fill-opacity:1;fill-rule:nonzero;stroke:none;stroke-width:0.27962" />
      <path
         id="path253"
         d="m 638.06232,228.50747 c 0.11471,0.10906 0.2293,0.21811 0.34393,0.32437 0.1705,-0.20133 0.51731,-0.54247 0.48654,-0.58441 -0.45577,-0.6012 -0.61794,-0.0644 -0.83047,0.26004"
         style="fill:#e6e6e6;fill-opacity:1;fill-rule:nonzero;stroke:none;stroke-width:0.27962" />
      <path
         id="path254"
         d="m 637.68204,229.27363 c 0.24048,-0.14533 0.48375,-0.2936 0.72421,-0.44179 -0.11471,-0.10632 -0.22928,-0.21531 -0.34393,-0.32437 -0.12583,0.25726 -0.25166,0.51171 -0.38028,0.76616"
         style="fill:#e6e6e6;fill-opacity:1;fill-rule:nonzero;stroke:none;stroke-width:0.27962" />
      <path
         id="path255"
         d="m 503.49194,237.15894 c 0.27962,-0.12856 0.55923,-0.26005 0.83886,-0.38867 -0.16504,-0.15938 -0.32996,-0.31316 -0.49492,-0.46697 -0.11472,0.28521 -0.22931,0.57043 -0.34394,0.85564"
         style="fill:#e6e6e6;fill-opacity:1;fill-rule:nonzero;stroke:none;stroke-width:0.27962" />
      <path
         id="path256"
         d="m 515.19408,236.81782 c 0.0812,-0.0839 0.16505,-0.16778 0.24885,-0.25166 -0.0812,-0.0839 -0.16505,-0.1705 -0.24606,-0.25726 -0.0839,0.12583 -0.16777,0.25445 -0.25166,0.38028 0.0839,0.0419 0.16505,0.0839 0.24887,0.12855"
         style="fill:#e6e6e6;fill-opacity:1;fill-rule:nonzero;stroke:none;stroke-width:0.27962" />
      <path
         id="path257"
         d="m 511.00534,239.91601 c 0.11472,-0.2992 0.22931,-0.59838 0.34394,-0.89479 -0.28522,0.13694 -0.57043,0.27124 -0.85564,0.40825 v 0 c -0.26005,0.29081 -0.52289,0.5816 -0.78572,0.87242 0.14827,0.1426 0.29918,0.28521 0.44738,0.43061 0.28243,-0.27402 0.56483,-0.54526 0.85004,-0.81649"
         style="fill:#e6e6e6;fill-opacity:1;fill-rule:nonzero;stroke:none;stroke-width:0.27962" />
      <path
         id="path258"
         d="m 549.30783,204.22799 -0.0168,0.27961 0.29081,-0.1231 z"
         style="fill:#e6e6e6;fill-opacity:1;fill-rule:nonzero;stroke:none;stroke-width:0.27962" />
      <path
         id="path259"
         d="m 481.36831,211.03675 c 0.27404,-0.12856 0.55086,-0.25166 0.82209,-0.38028 -0.14827,-0.14261 -0.29918,-0.28242 -0.45018,-0.42503 -0.1231,0.26843 -0.24608,0.53687 -0.37191,0.80531"
         style="fill:#e6e6e6;fill-opacity:1;fill-rule:nonzero;stroke:none;stroke-width:0.27962" />
      <path
         id="path260"
         d="m 509.88408,211.0703 c -0.0336,0.0105 -0.0644,0.0224 -0.095,0.0363 l 0.0614,0.0587 c 0.0105,-0.0308 0.0224,-0.0644 0.0336,-0.095"
         style="fill:#e6e6e6;fill-opacity:1;fill-rule:nonzero;stroke:none;stroke-width:0.27962" />
      <path
         id="path261"
         d="m 510.04904,210.55021 c -0.056,0.17343 -0.11178,0.34674 -0.16505,0.52009 0.16505,-0.0698 0.32997,-0.13694 0.49493,-0.20405 -0.10905,-0.10633 -0.22089,-0.21251 -0.32994,-0.31598"
         style="fill:#e6e6e6;fill-opacity:1;fill-rule:nonzero;stroke:none;stroke-width:0.27962" />
      <path
         id="path262"
         d="m 353.60921,228.75074 c 0.14659,0.13988 0.29165,0.27683 0.43818,0.41665 0.11996,-0.28243 0.24243,-0.56485 0.36377,-0.84726 -0.26759,0.14261 -0.53435,0.28801 -0.80195,0.43061"
         style="fill:#e6e6e6;fill-opacity:1;fill-rule:nonzero;stroke:none;stroke-width:0.27962" />
      <path
         id="path263"
         d="m 685.83838,217.21359 -0.15373,0.27122 0.27404,0.0168 z"
         style="fill:#e6e6e6;fill-opacity:1;fill-rule:nonzero;stroke:none;stroke-width:0.27962" />
      <path
         id="path264"
         d="m 353.25857,229.58401 c 0.2634,-0.13988 0.52542,-0.27683 0.78882,-0.41662 -0.14659,-0.13988 -0.29165,-0.27683 -0.43818,-0.41665 -0.11576,0.27683 -0.23375,0.55644 -0.35064,0.83327"
         style="fill:#e6e6e6;fill-opacity:1;fill-rule:nonzero;stroke:none;stroke-width:0.27962" />
      <path
         id="path265"
         d="m 388.84146,229.16739 c 0.0384,-0.0503 0.0105,-0.15666 0.0105,-0.24048 -0.0799,-0.0392 -0.15959,-0.0812 -0.23935,-0.12583 -0.001,0.16504 -0.004,0.32994 -0.004,0.49492 0.0807,-0.0392 0.1856,-0.0614 0.23461,-0.12855"
         style="fill:#e6e6e6;fill-opacity:1;fill-rule:nonzero;stroke:none;stroke-width:0.27962" />
      <path
         id="path266"
         d="m 495.28505,225.6078 c 0.0392,-0.0531 0.002,-0.16211 0.006,-0.24885 -0.0755,-0.0419 -0.18455,-0.13988 -0.23767,-0.11744 -0.33833,0.14827 -0.33833,0.33554 -0.002,0.48654 0.0531,0.0252 0.18728,-0.0531 0.23489,-0.12017"
         style="fill:#e6e6e6;fill-opacity:1;fill-rule:nonzero;stroke:none;stroke-width:0.27962" />
      <path
         id="path267"
         d="m 709.43559,219.12899 c -0.002,0.0812 0.13149,0.16777 0.20699,0.25165 0.0812,-0.0755 0.22649,-0.14826 0.2293,-0.22928 0.006,-0.0812 -0.13149,-0.16777 -0.20699,-0.25166 -0.0812,0.0755 -0.22649,0.151 -0.22928,0.22929"
         style="fill:#e6e6e6;fill-opacity:1;fill-rule:nonzero;stroke:none;stroke-width:0.27962" />
      <path
         id="path268"
         d="m 737.52072,218.2314 c 0.20406,-0.0698 0.40545,-0.13694 0.60956,-0.20699 -0.13149,-0.12583 -0.26562,-0.25166 -0.39705,-0.37468 -0.0698,0.19294 -0.13988,0.38867 -0.21251,0.58161"
         style="fill:#e6e6e6;fill-opacity:1;fill-rule:nonzero;stroke:none;stroke-width:0.27962" />
      <path
         id="path269"
         d="m 739.70735,217.52397 c -0.2209,-0.45299 -0.44179,-0.90878 -0.66271,-1.36177 -0.4362,0.49774 -0.8752,0.98986 -1.31141,1.48479 0.13149,0.12583 0.26565,0.25166 0.39705,0.37749 0.40266,-0.0336 0.80812,-0.0698 1.21078,-0.10339 v 0 c 0.25723,0.29639 0.51728,0.59559 0.77454,0.89479 0.15099,-0.1705 0.30478,-0.34114 0.45859,-0.51171 -0.28803,-0.26004 -0.57882,-0.52009 -0.86684,-0.78014"
         style="fill:#e6e6e6;fill-opacity:1;fill-rule:nonzero;stroke:none;stroke-width:0.27962" />
      <path
         id="path270"
         d="m 466.60154,228.18871 -0.0812,-0.22371 -0.12856,0.1986 z"
         style="fill:#e6e6e6;fill-opacity:1;fill-rule:nonzero;stroke:none;stroke-width:0.27962" />
      <path
         id="path271"
         d="m 748.36441,218.66482 c 0.0392,-0.0671 -0.29639,-0.36352 -0.45856,-0.55365 -0.151,0.16505 -0.2992,0.32716 -0.4446,0.49212 0.29079,0.26844 0.60117,0.58163 0.90316,0.0615"
         style="fill:#e6e6e6;fill-opacity:1;fill-rule:nonzero;stroke:none;stroke-width:0.27962" />
      <path
         id="path272"
         d="m 385.06238,232.09502 0.027,0.0252 0.0984,-0.13421 z"
         style="fill:#e6e6e6;fill-opacity:1;fill-rule:nonzero;stroke:none;stroke-width:0.27962" />
      <path
         id="path273"
         d="m 390.58602,215.29259 c -0.0807,-0.0698 -0.16169,-0.13988 -0.24159,-0.20971 l -0.12667,0.13694 c 0.12352,0.0252 0.24578,0.0503 0.36826,0.0728"
         style="fill:#e6e6e6;fill-opacity:1;fill-rule:nonzero;stroke:none;stroke-width:0.27962" />
      <path
         id="path274"
         d="m 477.30264,212.84869 c 0.26563,-0.13988 0.53406,-0.27961 0.79971,-0.41943 -0.14827,-0.14261 -0.29639,-0.28521 -0.44739,-0.42501 -0.11744,0.2824 -0.23488,0.56483 -0.35232,0.84444"
         style="fill:#e6e6e6;fill-opacity:1;fill-rule:nonzero;stroke:none;stroke-width:0.27962" />
      <path
         id="path275"
         d="m 479.6123,212.21675 -0.0979,-0.0923 -0.002,0.002 c -0.006,0 -0.0147,0.002 -0.0224,0.002 0.002,0.002 0.006,0.008 0.008,0.0105 l 0.11471,0.0755"
         style="fill:#e6e6e6;fill-opacity:1;fill-rule:nonzero;stroke:none;stroke-width:0.27962" />
      <path
         id="path276"
         d="m 509.78899,211.10667 -0.11744,0.19293 0.17889,-0.13421 z"
         style="fill:#e6e6e6;fill-opacity:1;fill-rule:nonzero;stroke:none;stroke-width:0.27962" />
      <path
         id="path277"
         d="m 624.92294,208.78581 c 0.0839,0.002 0.17049,-0.14534 0.25725,-0.2265 -0.0839,-0.0839 -0.16504,-0.1705 -0.24887,-0.25445 -0.0866,0.0812 -0.17049,0.16211 -0.25725,0.24327 0.0839,0.0866 0.16504,0.23489 0.24887,0.23768"
         style="fill:#e6e6e6;fill-opacity:1;fill-rule:nonzero;stroke:none;stroke-width:0.27962" />
      <path
         id="path278"
         d="m 526.08531,212.76762 c 0.0224,-0.056 -0.0531,-0.19294 -0.11744,-0.24328 -0.0531,-0.0392 -0.15938,-0.002 -0.24048,-0.006 -0.0447,0.0782 -0.13988,0.18728 -0.11744,0.24327 0.1426,0.34673 0.32715,0.34954 0.47536,0.006"
         style="fill:#e6e6e6;fill-opacity:1;fill-rule:nonzero;stroke:none;stroke-width:0.27962" />
      <path
         id="path279"
         d="m 565.43637,213.01089 c -0.0782,-0.0812 -0.15372,-0.16211 -0.23209,-0.24327 -0.0812,0.0782 -0.15938,0.15665 -0.23767,0.23767 0.11471,0.0812 0.23207,0.16211 0.34951,0.24327 0.0392,-0.0782 0.0812,-0.15666 0.12017,-0.23767"
         style="fill:#e6e6e6;fill-opacity:1;fill-rule:nonzero;stroke:none;stroke-width:0.27962" />
      <path
         id="path280"
         d="m 527.74066,215.28978 c 0.0392,-0.0531 0.006,-0.16211 0.006,-0.24606 -0.0755,-0.0447 -0.18182,-0.14533 -0.23767,-0.12016 -0.33833,0.14826 -0.34114,0.33554 -0.002,0.48654 0.0531,0.0252 0.18728,-0.0531 0.23489,-0.12017"
         style="fill:#e6e6e6;fill-opacity:1;fill-rule:nonzero;stroke:none;stroke-width:0.27962" />
      <path
         id="path281"
         d="m 545.59166,215.63372 c 0.0782,-0.0728 0.15666,-0.14534 0.2377,-0.21811 -0.0728,-0.0812 -0.14261,-0.16211 -0.21532,-0.24606 -0.0782,0.0755 -0.2181,0.14534 -0.22089,0.22371 -0.006,0.0755 0.12583,0.15938 0.1986,0.24046"
         style="fill:#e6e6e6;fill-opacity:1;fill-rule:nonzero;stroke:none;stroke-width:0.27962" />
      <path
         id="path282"
         d="m 668.59693,211.41424 c 0.0392,-0.0531 0.002,-0.16211 0.006,-0.24885 -0.0782,-0.042 -0.18455,-0.14261 -0.24048,-0.12017 -0.33833,0.151 -0.33833,0.33554 -0.002,0.48935 0.056,0.0252 0.18728,-0.0531 0.23768,-0.12017"
         style="fill:#e6e6e6;fill-opacity:1;fill-rule:nonzero;stroke:none;stroke-width:0.27962" />
      <path
         id="path283"
         d="m 509.85052,217.39533 c -0.0812,-0.0866 -0.16504,-0.17344 -0.24608,-0.26005 -0.0839,0.0839 -0.16777,0.1705 -0.25166,0.25447 0.12583,0.0896 0.24887,0.17616 0.3691,0.26563 0.0447,-0.0896 0.0866,-0.17344 0.12856,-0.26005"
         style="fill:#e6e6e6;fill-opacity:1;fill-rule:nonzero;stroke:none;stroke-width:0.27962" />
      <path
         id="path284"
         d="m 638.10147,213.39116 c 0.056,0.0252 0.19022,-0.0531 0.24327,-0.1231 0.0363,-0.0503 0.002,-0.16211 0.002,-0.24606 -0.0782,-0.0447 -0.18455,-0.14533 -0.24046,-0.12017 -0.34674,0.14827 -0.34953,0.33555 -0.006,0.48933"
         style="fill:#e6e6e6;fill-opacity:1;fill-rule:nonzero;stroke:none;stroke-width:0.27962" />
      <path
         id="path285"
         d="m 473.99192,219.01154 -0.095,0.15939 0.14827,-0.10633 z"
         style="fill:#e6e6e6;fill-opacity:1;fill-rule:nonzero;stroke:none;stroke-width:0.27962" />
      <path
         id="path286"
         d="m 706.20597,214.49846 c 0.0896,-0.0896 0.17889,-0.17343 0.26562,-0.26283 -0.0839,-0.0895 -0.16777,-0.18183 -0.25165,-0.27404 -0.0866,0.0866 -0.24327,0.1705 -0.24606,0.26284 -0.002,0.0866 0.14827,0.18182 0.23209,0.27403"
         style="fill:#e6e6e6;fill-opacity:1;fill-rule:nonzero;stroke:none;stroke-width:0.27962" />
    </g>
  </g>
</svg>
